<svg xmlns="http://www.w3.org/2000/svg" xmlns:xlink="http://www.w3.org/1999/xlink" width="40" height="40" viewBox="0 0 40 40">
  <defs>
    <clipPath id="clip-path">
      <rect id="Rectangle_248" data-name="Rectangle 248" width="20" height="20" transform="translate(852 5045)" fill="#fff"/>
    </clipPath>
  </defs>
  <g id="Discord" transform="translate(-407 -3193)">
    <rect id="Rectangle_243" data-name="Rectangle 243" width="40" height="40" rx="9" transform="translate(407 3193)" fill="#2fa3f7"/>
    <g id="Mask_Group_16" data-name="Mask Group 16" transform="translate(-435 -1842)" clip-path="url(#clip-path)">
      <path id="discord-2" data-name="discord" d="M18.032,5a8.457,8.457,0,0,0-4.8-1.782l-.24.274a11.255,11.255,0,0,1,4.267,2.159,14.763,14.763,0,0,0-13.813,0,11.245,11.245,0,0,1,4.49-2.228l-.171-.206A8.493,8.493,0,0,0,2.968,5,22.628,22.628,0,0,0,.5,14.907a6.223,6.223,0,0,0,5.227,2.588s.634-.754,1.148-1.405a5.356,5.356,0,0,1-3-2.005A12.692,12.692,0,0,0,8.35,15.815a12.389,12.389,0,0,0,8.895-1.731,5.434,5.434,0,0,1-3.1,2.022c.514.634,1.131,1.371,1.131,1.371A6.28,6.28,0,0,0,20.5,14.907,22.628,22.628,0,0,0,18.032,5ZM7.3,13.313a1.822,1.822,0,0,1-1.748-1.885,1.752,1.752,0,1,1,3.5,0A1.811,1.811,0,0,1,7.3,13.313Zm6.255,0a1.822,1.822,0,0,1-1.748-1.885,1.752,1.752,0,1,1,3.5,0A1.811,1.811,0,0,1,13.559,13.313Z" transform="translate(851.5 5044.643)" fill="#fff"/>
    </g>
  </g>
</svg>
