<svg id="hide" xmlns="http://www.w3.org/2000/svg" xmlns:xlink="http://www.w3.org/1999/xlink" width="20" height="20" viewBox="0 0 20 20">
  <defs>
    <clipPath id="clip-path">
      <rect id="Rectangle_5" data-name="Rectangle 5" width="20" height="20" transform="translate(342 363.5)" fill="#b5c4c9"/>
    </clipPath>
  </defs>
  <g id="unhidden" transform="translate(-342 -363.5)" clip-path="url(#clip-path)">
    <g id="Layer_2" data-name="Layer 2" transform="translate(342.013 363.5)">
      <g id="Layer_1" data-name="Layer 1">
        <path id="Path_66" data-name="Path 66" d="M19.186,20a4.668,4.668,0,0,1-.453-.356q-2.183-2.176-4.354-4.363a.223.223,0,0,0-.312-.052A9.1,9.1,0,0,1,9.93,16.255,9.284,9.284,0,0,1,5.591,15.1a17.026,17.026,0,0,1-4.439-3.551c-.275-.295-.542-.6-.8-.9-.128-.154-.234-.324-.35-.486V9.844a2.248,2.248,0,0,1,.162-.26,20.113,20.113,0,0,1,4.3-3.98c.046-.031.089-.067.153-.116-.064-.056-.116-.1-.162-.141Q2.4,3.291.355,1.234A4.792,4.792,0,0,1,0,.781V.469A.854.854,0,0,1,.469,0H.781a4.588,4.588,0,0,1,.453.356q9.228,9.237,18.453,18.479a.639.639,0,0,1-.177,1.149s-.007.011-.011.016ZM1.434,10.008c.369.4.719.789,1.087,1.163a14.4,14.4,0,0,0,4.02,3.012,7.564,7.564,0,0,0,6.606.113c.052-.022.1-.052.123-.066l-1.149-1.151a3.746,3.746,0,0,1-5.2-5.232L5.5,6.417A17.87,17.87,0,0,0,1.434,10.008ZM7.828,8.776a2.457,2.457,0,0,0,.43,3.028,2.42,2.42,0,0,0,2.942.349Z" fill="#b5c4c9"/>
        <path id="Path_67" data-name="Path 67" d="M18.524,9.995a15.786,15.786,0,0,0-5.44-4.31,7.446,7.446,0,0,0-4.74-.5.948.948,0,0,1-.307.03.613.613,0,0,1-.549-.588.625.625,0,0,1,.473-.636,8.458,8.458,0,0,1,3.289-.146,10.99,10.99,0,0,1,4.878,2.171A21.2,21.2,0,0,1,19.8,9.579a.608.608,0,0,1,0,.836,23.242,23.242,0,0,1-2.917,2.977.625.625,0,0,1-.919-.043.633.633,0,0,1,.12-.915,21.9,21.9,0,0,0,2.293-2.278C18.428,10.108,18.469,10.059,18.524,9.995Z" fill="#b5c4c9"/>
        <path id="Path_68" data-name="Path 68" d="M10.488,6.281a3.608,3.608,0,0,1,1.931.868,3.726,3.726,0,0,1,1.258,2.209.664.664,0,0,1-.231.717.589.589,0,0,1-.625.064.661.661,0,0,1-.374-.556,2.493,2.493,0,0,0-2.053-2.051.653.653,0,0,1-.6-.546A.633.633,0,0,1,10.488,6.281Z" fill="#b5c4c9"/>
      </g>
    </g>
  </g>
</svg>
