<svg xmlns="http://www.w3.org/2000/svg" xmlns:xlink="http://www.w3.org/1999/xlink" width="16" height="16" viewBox="0 0 16 16">
  <defs>
    <clipPath id="clip-path">
      <rect id="Rectangle_201" data-name="Rectangle 201" width="16" height="16" transform="translate(533.596 121)" fill="#2fa3f7"/>
    </clipPath>
  </defs>
  <g id="Proxy_IPv4" data-name="Proxy IPv4" transform="translate(-533.596 -121)" clip-path="url(#clip-path)">
    <g id="Layer_2" data-name="Layer 2" transform="translate(533.596 122.537)">
      <g id="Layer_1" data-name="Layer 1" transform="translate(0 0)">
        <path id="Path_1032" data-name="Path 1032" d="M9.679,6.794h3.688A1.525,1.525,0,0,1,15,8.429c0,.467,0,.934,0,1.4a1.51,1.51,0,0,1-1.527,1.523q-3.808.008-7.613,0A1.509,1.509,0,0,1,4.335,9.826q-.008-.748,0-1.5A1.513,1.513,0,0,1,5.874,6.8C7.142,6.79,8.411,6.794,9.679,6.794Zm2.263,1.52H10.467a.761.761,0,1,0,.005,1.519q1.476.005,2.951,0a.762.762,0,1,0-.005-1.519C12.926,8.312,12.434,8.314,11.943,8.314Zm-6.073,0a.76.76,0,1,0,.746.758.749.749,0,0,0-.746-.758Zm2.281,0a.759.759,0,1,0,.753.751.748.748,0,0,0-.753-.751Z" transform="translate(1 1.57)" fill="#2fa3f7"/>
        <path id="Path_1033" data-name="Path 1033" d="M3.843,3.86a13.527,13.527,0,0,0-3.666.8C.012,3.117,2.9.224,4.621.163c-.158.6-.345,1.2-.472,1.814S3.947,3.208,3.843,3.86Z" transform="translate(0.039 0.04)" fill="#2fa3f7"/>
        <path id="Path_1034" data-name="Path 1034" d="M.171,6.064a13.577,13.577,0,0,0,3.694.8A13.591,13.591,0,0,0,4.67,10.56C2.95,10.552.075,7.676.171,6.064Z" transform="translate(0.039 1.402)" fill="#2fa3f7"/>
        <path id="Path_1035" data-name="Path 1035" d="M10.585,4.657a13.526,13.526,0,0,0-3.7-.8A13.559,13.559,0,0,0,6.08.177C7.628.015,10.523,2.889,10.585,4.657Z" transform="translate(1.403 0.042)" fill="#2fa3f7"/>
        <path id="Path_1036" data-name="Path 1036" d="M6.716,6.709H3.745V3.737H6.716Z" transform="translate(0.864 0.865)" fill="#2fa3f7"/>
        <path id="Path_1037" data-name="Path 1037" d="M6.792,6.615V3.789c.426.06.854.109,1.278.182a9.175,9.175,0,0,1,2.255.644.417.417,0,0,1,.3.444c-.023.71.09.578-.548.842A11.549,11.549,0,0,1,6.792,6.615Z" transform="translate(1.567 0.877)" fill="#2fa3f7"/>
        <path id="Path_1038" data-name="Path 1038" d="M6.628,3.82H3.8a11.407,11.407,0,0,1,.859-3.6A.331.331,0,0,1,5.012,0c.776.015.629-.114.922.6A11.572,11.572,0,0,1,6.628,3.82Z" transform="translate(0.878 0.002)" fill="#2fa3f7"/>
        <path id="Path_1039" data-name="Path 1039" d="M3.848,3.794v2.82a12.812,12.812,0,0,1-2.49-.444C.965,6.053.588,5.886.2,5.746A.279.279,0,0,1,0,5.438c.01-.812-.119-.655.621-.952A11.757,11.757,0,0,1,3.848,3.794Z" transform="translate(0 0.878)" fill="#2fa3f7"/>
      </g>
    </g>
  </g>
</svg>
