<svg xmlns="http://www.w3.org/2000/svg" width="98.492" height="50" viewBox="0 0 98.492 50">
  <g id="logo" transform="translate(-742.06 -157.966)">
    <path id="Path_1065" data-name="Path 1065" d="M770.755,276.678a7.692,7.692,0,0,1,3.074.619,7.9,7.9,0,0,1,4.2,4.2,7.942,7.942,0,0,1,0,6.148,7.9,7.9,0,0,1-4.2,4.2,7.941,7.941,0,0,1-6.148,0,7.9,7.9,0,0,1-4.2-4.2,7.945,7.945,0,0,1,0-6.148,7.9,7.9,0,0,1,4.2-4.2A7.69,7.69,0,0,1,770.755,276.678Zm3.378,7.869a3.252,3.252,0,0,0-.262-1.3,3.258,3.258,0,0,0-1.752-1.752,3.359,3.359,0,0,0-2.6,0,3.461,3.461,0,0,0-1.059.7,3.331,3.331,0,0,0-.714,3.651,3.334,3.334,0,0,0,1.773,1.773,3.308,3.308,0,0,0,3.651-.714,3.451,3.451,0,0,0,.7-1.06A3.249,3.249,0,0,0,774.133,284.547Zm-12.578-1.8h-3.81v-1.7h4.321c.019-.045.035-.092.055-.137a9.482,9.482,0,0,1,1.982-2.948v-.985H753.339v15.213h4.407v-5.561H761.6a9.549,9.549,0,0,1-.049-3.882Zm25.828-5.77-8.344,17.149h1.572l2.082-4.309,2.275,4.309H790.2q-1.017-2.179-2.094-4.381t-2.094-4.405l4-8.362Zm-2.507,0-1.846,3.819-1.91-3.819h-4.637c.043.092.088.185.131.277a9.253,9.253,0,0,1,.772.687,9.485,9.485,0,0,1,2,2.97,9.423,9.423,0,0,1,0,7.323,9.484,9.484,0,0,1-2,2.971,9.281,9.281,0,0,1-.755.674l-.148.311h2.92l7.4-15.213Z" transform="translate(-8.61 -90.618)" fill="#2fa3f7"/>
    <path id="Path_1066" data-name="Path 1066" d="M750.146,158.367l18.747,20.719-10.609,6.337-16.224-9.995Zm16.036-.4-7.1,7.094,11.04,12.144,3.746-2.218Z" fill="#2fa3f7"/>
    <g id="Group_40" data-name="Group 40" transform="translate(782.14 186.355)">
      <path id="Path_1067" data-name="Path 1067" d="M919.149,277.923a6.406,6.406,0,0,1,4.22,1.324,4.9,4.9,0,0,1,1.363,1.75,5.54,5.54,0,0,1,.459,2.326,6.906,6.906,0,0,1-.459,2.628,4.342,4.342,0,0,1-1.376,1.828,6.831,6.831,0,0,1-4.469,1.311H915.3v5.583q0,.367-.354.367h-3.185q-.341,0-.341-.367V280.125a2.171,2.171,0,0,1,.564-1.625,1.925,1.925,0,0,1,1.52-.577Zm-.144,3.683-3.709.013v3.827h3.761q2.189,0,2.189-2.031,0-1.8-2.241-1.8Z" transform="translate(-911.417 -277.923)" fill="#fff"/>
      <path id="Path_1068" data-name="Path 1068" d="M973.506,296.032l1.769.013q3.957,0,4.665.707a.491.491,0,0,1,.131.5l-.577,2.425q-.078.38-.524.131l-1.206-.275-1.809-.17h-.878V308.5q0,.367-.354.367H971.88a.32.32,0,0,1-.341-.367V298.221q0-2.175,1.966-2.175Z" transform="translate(-957.311 -291.746)" fill="#fff"/>
      <path id="Path_1069" data-name="Path 1069" d="M1006.244,301.54v.04a8.03,8.03,0,0,1,.426-2.687,6.54,6.54,0,0,1,1.252-2.149,5.559,5.559,0,0,1,4.3-1.874,5.47,5.47,0,0,1,4.286,1.874,6.223,6.223,0,0,1,1.271,2.156,8.159,8.159,0,0,1,.419,2.68,6.986,6.986,0,0,1-1.69,4.823,5.524,5.524,0,0,1-4.286,1.835,5.614,5.614,0,0,1-4.3-1.835,6.689,6.689,0,0,1-1.252-2.163,7.943,7.943,0,0,1-.426-2.66Zm8.453.04a4.937,4.937,0,0,0-.17-1.363,3.841,3.841,0,0,0-.472-1.048,2.067,2.067,0,0,0-1.835-.944q-2.438,0-2.437,3.355t2.437,3.355a2.021,2.021,0,0,0,1.835-1.035,3.874,3.874,0,0,0,.472-1.035A4.535,4.535,0,0,0,1014.7,301.579Z" transform="translate(-983.802 -290.859)" fill="#fff"/>
      <path id="Path_1070" data-name="Path 1070" d="M1064.32,295.977v.013c.157,0,.253.041.288.124s0,.2-.105.36l-3.669,5.4,4.364,6.5q.3.445-.236.445h-3.237a.486.486,0,0,1-.472-.249l-2.385-3.932-1.206,2.044-1.193,1.913q-.1.223-.524.223h-3.185q-.262,0-.321-.111t.085-.3l4.338-6.54-3.657-5.413q-.315-.472.21-.472h3.329a.482.482,0,0,1,.242.072.519.519,0,0,1,.2.243l1.678,2.792,1.678-2.8a.505.505,0,0,1,.445-.3h3.329Z" transform="translate(-1019.052 -291.704)" fill="#fff"/>
      <path id="Path_1071" data-name="Path 1071" d="M1114.922,295.977v.013q.419,0,.21.472l-6.474,16.526a.488.488,0,0,1-.472.328h-2.647q-.472,0-.288-.419l1.625-4.076-4.954-12.358q-.2-.472.223-.472h3.08a.43.43,0,0,1,.445.38l2.045,5.819.865,2.792q.144-.642.354-1.344t.472-1.448l2.045-5.819a.491.491,0,0,1,.511-.38h2.962Z" transform="translate(-1056.789 -291.704)" fill="#fff"/>
    </g>
  </g>
</svg>
