<svg xmlns="http://www.w3.org/2000/svg" width="231.224" height="117.382" viewBox="0 0 231.224 117.382">
  <g id="logo" transform="translate(-742.06 -157.966)">
    <path id="Path_1065" data-name="Path 1065" d="M794.225,276.678a18.058,18.058,0,0,1,7.217,1.453,18.541,18.541,0,0,1,9.852,9.852,18.644,18.644,0,0,1,0,14.434,18.541,18.541,0,0,1-9.852,9.852,18.643,18.643,0,0,1-14.433,0,18.543,18.543,0,0,1-9.852-9.852,18.652,18.652,0,0,1,0-14.434,18.543,18.543,0,0,1,9.852-9.852A18.054,18.054,0,0,1,794.225,276.678Zm7.931,18.473a7.634,7.634,0,0,0-.615-3.055,7.65,7.65,0,0,0-4.113-4.114,7.885,7.885,0,0,0-6.109,0,8.126,8.126,0,0,0-2.487,1.651,7.82,7.82,0,0,0-1.675,8.571,7.828,7.828,0,0,0,4.162,4.163,7.765,7.765,0,0,0,8.572-1.675,8.1,8.1,0,0,0,1.65-2.488A7.627,7.627,0,0,0,802.156,295.151Zm-29.528-4.237h-8.944v-3.99h10.143c.044-.107.083-.216.129-.322a22.262,22.262,0,0,1,4.654-6.922v-2.313H753.339v35.714h10.345V300.028h9.06a22.415,22.415,0,0,1-.116-9.113Zm60.636-13.547-19.588,40.26h3.691l4.887-10.116,5.342,10.116h12.275q-2.387-5.114-4.916-10.286T830.04,297l9.381-19.632Zm-5.886,0-4.335,8.966-4.483-8.966H807.673c.1.216.206.433.307.649a21.724,21.724,0,0,1,1.813,1.613,22.269,22.269,0,0,1,4.7,6.972,22.12,22.12,0,0,1,0,17.192,22.266,22.266,0,0,1-4.7,6.976,21.794,21.794,0,0,1-1.771,1.581l-.348.731h6.855l17.377-35.714Z" transform="translate(-5.013 -52.757)" fill="#2fa3f7"/>
    <path id="Path_1066" data-name="Path 1066" d="M761.043,158.907l44.011,48.642-24.907,14.878L742.06,198.962Zm37.648-.941L782.029,174.62l25.918,28.51,8.795-5.206Z" transform="translate(0)" fill="#2fa3f7"/>
    <g id="Group_40" data-name="Group 40" transform="translate(836.152 224.612)">
      <path id="Path_1067" data-name="Path 1067" d="M929.57,277.923q6.154,0,9.907,3.107a11.5,11.5,0,0,1,3.2,4.107,13.006,13.006,0,0,1,1.077,5.461,16.21,16.21,0,0,1-1.077,6.169,10.191,10.191,0,0,1-3.231,4.292q-3.724,3.077-10.492,3.077h-8.43v13.107q0,.862-.831.861h-7.476q-.8,0-.8-.861V283.092a5.1,5.1,0,0,1,1.323-3.815,4.519,4.519,0,0,1,3.569-1.354Zm-.338,8.646-8.707.031v8.984h8.83q5.138,0,5.139-4.769,0-4.214-5.261-4.215Z" transform="translate(-911.417 -277.923)" fill="#fff"/>
      <path id="Path_1068" data-name="Path 1068" d="M976.155,296.032l4.154.031q9.29,0,10.953,1.661a1.153,1.153,0,0,1,.308,1.17l-1.354,5.692q-.184.892-1.231.308l-2.831-.647-4.246-.4h-2.062v21.445q0,.862-.83.861h-6.677a.751.751,0,0,1-.8-.861V301.17q0-5.107,4.615-5.107Z" transform="translate(-938.136 -285.971)" fill="#fff"/>
      <path id="Path_1069" data-name="Path 1069" d="M1006.244,310.529v.093a18.852,18.852,0,0,1,1-6.308,15.355,15.355,0,0,1,2.939-5.046,13.051,13.051,0,0,1,10.091-4.4,12.842,12.842,0,0,1,10.062,4.4,14.608,14.608,0,0,1,2.985,5.061,19.151,19.151,0,0,1,.984,6.292,16.4,16.4,0,0,1-3.969,11.322,12.968,12.968,0,0,1-10.062,4.307,13.181,13.181,0,0,1-10.091-4.307,15.7,15.7,0,0,1-2.939-5.077,18.647,18.647,0,0,1-1-6.245Zm19.845.093a11.589,11.589,0,0,0-.4-3.2,9.013,9.013,0,0,0-1.108-2.461,4.854,4.854,0,0,0-4.308-2.215q-5.723,0-5.722,7.877t5.722,7.876a4.744,4.744,0,0,0,4.308-2.43,9.092,9.092,0,0,0,1.108-2.431A10.646,10.646,0,0,0,1026.089,310.622Z" transform="translate(-953.559 -285.454)" fill="#fff"/>
      <path id="Path_1070" data-name="Path 1070" d="M1080.353,295.977v.031c.37,0,.594.1.677.292s0,.477-.247.846l-8.614,12.677,10.245,15.261q.707,1.046-.554,1.046h-7.6a1.14,1.14,0,0,1-1.108-.584l-5.6-9.23-2.831,4.8-2.8,4.492q-.246.523-1.231.523h-7.476q-.615,0-.754-.261t.2-.693l10.185-15.353-8.584-12.707q-.738-1.108.493-1.108h7.815a1.133,1.133,0,0,1,.569.169,1.219,1.219,0,0,1,.477.569l3.939,6.554,3.938-6.584a1.186,1.186,0,0,1,1.046-.708h7.815Z" transform="translate(-974.081 -285.946)" fill="#fff"/>
      <path id="Path_1071" data-name="Path 1071" d="M1132.527,295.977v.031q.985,0,.492,1.108l-15.2,38.8a1.146,1.146,0,0,1-1.108.769H1110.5q-1.108,0-.677-.984l3.815-9.569-11.63-29.013q-.462-1.108.523-1.108h7.23a1.01,1.01,0,0,1,1.046.892l4.8,13.661,2.031,6.554q.337-1.508.831-3.154t1.107-3.4l4.8-13.661a1.152,1.152,0,0,1,1.2-.892h6.954Z" transform="translate(-996.052 -285.946)" fill="#fff"/>
    </g>
  </g>
</svg>
