<svg xmlns="http://www.w3.org/2000/svg" xmlns:xlink="http://www.w3.org/1999/xlink" width="53" height="53" viewBox="0 0 53 53">
  <defs>
    <clipPath id="clip-path">
      <rect id="Rectangle_210" data-name="Rectangle 210" width="53" height="53" transform="translate(124 65.637)" fill="#fff"/>
    </clipPath>
  </defs>
  <g id="Mask_Group_1" data-name="Mask Group 1" transform="translate(-124 -65.637)" clip-path="url(#clip-path)">
    <path id="shop" d="M18.029,21.347,20.358,5.889H8.244L3.183,19.139a4.645,4.645,0,0,0-.238,1.472c0,3.251,3.386,5.889,7.57,5.889C14.372,26.5,17.561,24.25,18.029,21.347ZM29.444,26.5c4.181,0,7.57-2.638,7.57-5.889,0-.121-.009-.241-.015-.356L35.5,5.889H23.388l-1.5,14.354c-.006.121-.012.241-.012.368C21.874,23.862,25.263,26.5,29.444,26.5Zm14.722,3.08V41.222H14.722V29.6a12.39,12.39,0,0,1-4.208.73,12.138,12.138,0,0,1-1.681-.144V48.878A4.131,4.131,0,0,0,12.95,53H45.933a4.136,4.136,0,0,0,4.122-4.122V30.186a12.652,12.652,0,0,1-1.681.144A12.234,12.234,0,0,1,44.167,29.58ZM55.709,19.139,50.641,5.889H38.531l2.326,15.435c.453,2.915,3.642,5.176,7.517,5.176,4.181,0,7.57-2.638,7.57-5.889A4.728,4.728,0,0,0,55.709,19.139Z" transform="translate(121.056 62.692)" fill="#fff"/>
  </g>
</svg>
