<svg id="hide" xmlns="http://www.w3.org/2000/svg" xmlns:xlink="http://www.w3.org/1999/xlink" width="20" height="20" viewBox="0 0 20 20">
  <defs>
    <clipPath id="clip-path">
      <rect id="Rectangle_4" data-name="Rectangle 4" width="20" height="20" transform="translate(342 363.5)" fill="#808f9b"/>
    </clipPath>
  </defs>
  <g id="hidden" transform="translate(-342 -363.5)" clip-path="url(#clip-path)">
    <g id="Layer_2" data-name="Layer 2" transform="translate(341.998 366.979)">
      <g id="Layer_1" data-name="Layer 1">
        <path id="Path_63" data-name="Path 63" d="M20,6.639a4.048,4.048,0,0,1-.281.463,18.955,18.955,0,0,1-5.032,4.51,9.747,9.747,0,0,1-3.611,1.351A7.832,7.832,0,0,1,7,12.443,14.023,14.023,0,0,1,2.992,9.927,20.186,20.186,0,0,1,.23,7.04a.7.7,0,0,1,0-1.033A18.984,18.984,0,0,1,5.295,1.446,9.315,9.315,0,0,1,9.541.015a8.368,8.368,0,0,1,4.43,1.024,17.937,17.937,0,0,1,5.541,4.645A8.67,8.67,0,0,1,20,6.4Zm-1.479-.1c-.049-.061-.077-.1-.113-.14-.65-.675-1.269-1.382-1.954-2.018A12.265,12.265,0,0,0,12.3,1.737a6.426,6.426,0,0,0-3.029-.385A8.69,8.69,0,0,0,5.782,2.671,17.424,17.424,0,0,0,1.965,5.958c-.164.183-.318.374-.48.565A20.36,20.36,0,0,0,4.079,9.136a12.148,12.148,0,0,0,3.629,2.175,6.626,6.626,0,0,0,2.426.424,7.73,7.73,0,0,0,3.486-1.016,15.384,15.384,0,0,0,3.729-2.9c.4-.413.781-.85,1.175-1.28Z" fill="#808f9b"/>
        <path id="Path_64" data-name="Path 64" d="M13.911,6.528a3.91,3.91,0,1,1-3.9-3.914,3.91,3.91,0,0,1,3.9,3.914Zm-1.3.018A2.611,2.611,0,1,0,9.977,9.132,2.626,2.626,0,0,0,12.611,6.545Z" fill="#808f9b"/>
        <path id="Path_65" data-name="Path 65" d="M9.993,5.224a1.293,1.293,0,1,1-.919.386,1.3,1.3,0,0,1,.919-.386Z" fill="#808f9b"/>
      </g>
    </g>
  </g>
</svg>
