<svg id="whatsapp" xmlns="http://www.w3.org/2000/svg" width="32" height="32" viewBox="0 0 32 32">
  <rect id="Rectangle_249" data-name="Rectangle 249" width="32" height="32" rx="16" fill="#2fa3f7"/>
  <path id="Path_1140" data-name="Path 1140" d="M23.167,8.808a9.082,9.082,0,0,0-6.508-2.724,9.215,9.215,0,0,0-9.232,9.283,9.742,9.742,0,0,0,1.211,4.591L7.326,24.75l4.894-1.261a9.009,9.009,0,0,0,4.389,1.11,9.28,9.28,0,0,0,9.232-9.283A9.156,9.156,0,0,0,23.167,8.808ZM16.659,23.035a7.5,7.5,0,0,1-3.885-1.059l-.3-.151-2.926.757L10.3,19.7l-.2-.3a7.658,7.658,0,1,1,10.544,2.472A7.355,7.355,0,0,1,16.659,23.035Zm4.44-5.6-.555-.252s-.807-.353-1.312-.605c-.05,0-.1-.05-.151-.05a.729.729,0,0,0-.353.1s-.05.05-.757.858a.277.277,0,0,1-.252.151h-.05a.382.382,0,0,1-.2-.1l-.252-.1a4.9,4.9,0,0,1-1.463-.959c-.1-.1-.252-.2-.353-.3a5.635,5.635,0,0,1-.959-1.211l-.05-.1c-.05-.05-.05-.1-.1-.2a.378.378,0,0,1,.05-.252s.2-.252.353-.4c.1-.1.151-.252.252-.353a.622.622,0,0,0,.1-.5,19.651,19.651,0,0,0-.807-1.917.584.584,0,0,0-.353-.252h-.555c-.1,0-.2.05-.3.05l-.05.05c-.1.05-.2.151-.3.2-.1.1-.151.2-.252.3a2.573,2.573,0,0,0-.555,1.564,2.993,2.993,0,0,0,.252,1.16l.05.151a8.4,8.4,0,0,0,1.867,2.573l.2.2a3.051,3.051,0,0,1,.4.4,9.015,9.015,0,0,0,3.632,1.917c.151.05.353.05.5.1h.5a1.871,1.871,0,0,0,.757-.2c.151-.1.252-.1.353-.2l.1-.1c.1-.1.2-.151.3-.252a1.337,1.337,0,0,0,.252-.3,2.891,2.891,0,0,0,.2-.706v-.353A.625.625,0,0,0,21.1,17.435Z" fill="#fff"/>
</svg>
