<svg xmlns="http://www.w3.org/2000/svg" xmlns:xlink="http://www.w3.org/1999/xlink" width="15" height="15" viewBox="0 0 15 15">
  <defs>
    <clipPath id="clip-path">
      <rect id="Rectangle_204" data-name="Rectangle 204" width="15" height="15" transform="translate(531.611 119.5)" fill="#2fa3f7"/>
    </clipPath>
  </defs>
  <g id="ISP_Proxy" data-name="ISP Proxy" transform="translate(-531.611 -119.5)" clip-path="url(#clip-path)">
    <g id="Layer_2" data-name="Layer 2" transform="translate(532.705 119.5)">
      <g id="Layer_1" data-name="Layer 1">
        <path id="Path_1059" data-name="Path 1059" d="M5.651,11.025H5.439c-1.1,0-2.195,0-3.292,0A2.117,2.117,0,0,1,.026,9.243,1.884,1.884,0,0,1,0,8.911Q0,7.087,0,5.26c0-.042.005-.082.008-.13H12.8c0,.055.008.11.008.165v3.54a2.115,2.115,0,0,1-2.2,2.189H6.942c0,.295,0,.573,0,.852a.15.15,0,0,0,.076.1,1.725,1.725,0,0,1,.71.707.237.237,0,0,0,.179.079c1.156,0,2.312,0,3.467,0a1.111,1.111,0,0,1,.3.028.632.632,0,0,1,.452.681.64.64,0,0,1-.61.565c-.175.007-.35,0-.525,0q-1.542,0-3.085,0a.2.2,0,0,0-.208.122A1.535,1.535,0,0,1,6.3,15a1.547,1.547,0,0,1-1.412-.842.191.191,0,0,0-.2-.115q-1.773.005-3.547,0a.639.639,0,0,1-.115-1.272c.09-.008.18-.006.27-.006H4.671a.209.209,0,0,0,.222-.127,1.587,1.587,0,0,1,.654-.653c.042-.024.1-.078.1-.119C5.655,11.6,5.651,11.322,5.651,11.025Z" fill="#2fa3f7"/>
        <path id="Path_1060" data-name="Path 1060" d="M.008,3.829c0-.054-.008-.1-.008-.15,0-.513,0-1.026,0-1.54A2.094,2.094,0,0,1,2.121.007q4.294-.014,8.588,0a2.085,2.085,0,0,1,2.1,2.1c.008.534,0,1.068,0,1.6,0,.036-.006.073-.011.118ZM9.037,2.523h1.336a.639.639,0,1,0,0-1.275H7.681a.781.781,0,0,0-.189.018.637.637,0,0,0,.145,1.256c.467.006.933,0,1.4,0Z" fill="#2fa3f7"/>
      </g>
    </g>
  </g>
</svg>
