<svg xmlns="http://www.w3.org/2000/svg" xmlns:xlink="http://www.w3.org/1999/xlink" width="15" height="15" viewBox="0 0 15 15">
  <defs>
    <clipPath id="clip-path">
      <rect id="Rectangle_203" data-name="Rectangle 203" width="15" height="15" transform="translate(531.611 119.5)" fill="#2fa3f7"/>
    </clipPath>
  </defs>
  <g id="MIX_Proxy" data-name="MIX Proxy" transform="translate(-531.611 -119.5)" clip-path="url(#clip-path)">
    <g id="Layer_2" data-name="Layer 2" transform="translate(531.611 119.507)">
      <g id="Layer_1" data-name="Layer 1">
        <path id="Path_1048" data-name="Path 1048" d="M2.679,5.875V5.352H1.684a.545.545,0,0,1-.607-.61V3.114a1.686,1.686,0,0,1-.755-.561A1.588,1.588,0,0,1,.255.748a1.6,1.6,0,0,1,2.936.582,1.574,1.574,0,0,1-.9,1.717.209.209,0,0,0-.146.233c.011.328,0,.656,0,1,.218,0,.423,0,.626,0a.188.188,0,0,0,.111-.08,1.092,1.092,0,0,1,.923-.452h4.2a1.065,1.065,0,0,1,1.1,1.1c0,.34,0,.679,0,1.031ZM5.893,4.821c0-.095.006-.19,0-.284a.265.265,0,0,0-.53.006c-.008.184-.008.368,0,.552a.261.261,0,0,0,.259.255.265.265,0,0,0,.271-.261C5.9,5,5.894,4.911,5.893,4.821Zm1.073.008c0-.089,0-.179,0-.268A.267.267,0,0,0,6.7,4.282a.264.264,0,0,0-.262.268c-.006.179-.007.358,0,.536a.262.262,0,0,0,.268.263.266.266,0,0,0,.263-.268c0-.084,0-.168,0-.252ZM7.5,4.81h0v.285a.268.268,0,0,0,.26.256.259.259,0,0,0,.268-.244,4.906,4.906,0,0,0,0-.585.248.248,0,0,0-.256-.239.259.259,0,0,0-.27.243c-.008.094,0,.189,0,.284Z" fill="#2fa3f7"/>
        <path id="Path_1049" data-name="Path 1049" d="M1.076,11.862V10.243a.542.542,0,0,1,.608-.609h1V9.111H9.093a10.869,10.869,0,0,1-.009,1.231,1.027,1.027,0,0,1-1.061.9q-2.125,0-4.249,0a1.089,1.089,0,0,1-.881-.437.29.29,0,0,0-.186-.094c-.179-.013-.358,0-.548,0v1.158c.907.541,1.226,1.17.993,1.974a1.605,1.605,0,0,1-3.1-.072A1.633,1.633,0,0,1,1.076,11.862Zm4.817-1.692h0v-.25a.28.28,0,0,0,0-.034.268.268,0,0,0-.265-.251.258.258,0,0,0-.265.248c-.009.189-.009.379,0,.568a.259.259,0,0,0,.263.251.263.263,0,0,0,.265-.249c.007-.095,0-.19,0-.285Zm1.073,0h0V9.891A.268.268,0,0,0,6.7,9.636a.261.261,0,0,0-.268.261c-.008.184-.008.368,0,.552A.261.261,0,0,0,6.7,10.7a.265.265,0,0,0,.271-.261c0-.089,0-.178,0-.268Zm1.073-.006c0-.095.007-.19,0-.284a.263.263,0,0,0-.265-.249.257.257,0,0,0-.263.25c-.009.189-.009.379,0,.568a.259.259,0,0,0,.264.25.263.263,0,0,0,.265-.25c.005-.094,0-.189,0-.284Z" fill="#2fa3f7"/>
        <path id="Path_1050" data-name="Path 1050" d="M2.695,6.43H9.1V8.551h-6.4ZM5.894,7.5c0-.095.005-.19,0-.284a.265.265,0,0,0-.259-.256.261.261,0,0,0-.271.26c-.008.184-.008.368,0,.552a.261.261,0,0,0,.258.256.265.265,0,0,0,.272-.26C5.9,7.678,5.894,7.588,5.894,7.5Zm1.073,0c0-.095.005-.19,0-.284a.265.265,0,0,0-.272-.26.26.26,0,0,0-.258.256c-.008.184-.008.368,0,.552a.261.261,0,0,0,.271.26.265.265,0,0,0,.259-.256c0-.089,0-.178,0-.268Zm1.073,0h0V7.24a.277.277,0,0,0,0-.034.268.268,0,0,0-.268-.248.259.259,0,0,0-.263.251c-.008.189-.008.379,0,.568a.259.259,0,0,0,.265.248.263.263,0,0,0,.263-.251c0-.088,0-.178,0-.267Z" fill="#2fa3f7"/>
        <path id="Path_1051" data-name="Path 1051" d="M11.687,9.508a8.052,8.052,0,0,0,3.194-.99,5.287,5.287,0,0,1-4.22,4.213,4.909,4.909,0,0,0,.67-1.564C11.466,10.623,11.568,10.071,11.687,9.508Z" fill="#2fa3f7"/>
        <path id="Path_1052" data-name="Path 1052" d="M10.662,2.247a5.317,5.317,0,0,1,4.222,4.222,8.106,8.106,0,0,0-3.22-.994A8.126,8.126,0,0,0,10.662,2.247Z" fill="#2fa3f7"/>
        <path id="Path_1053" data-name="Path 1053" d="M11.753,8.955V6.03a8.04,8.04,0,0,1,2.555.723,2.29,2.29,0,0,1,.415.278.522.522,0,0,1-.01.928,3.256,3.256,0,0,1-.67.4A8.536,8.536,0,0,1,11.753,8.955Z" fill="#2fa3f7"/>
        <path id="Path_1054" data-name="Path 1054" d="M9.649,9.113V5.876l1.519.073a15.234,15.234,0,0,1,0,3.083Z" fill="#2fa3f7"/>
        <path id="Path_1055" data-name="Path 1055" d="M8.675,3.338A3,3,0,0,1,9.189,2.4a.525.525,0,0,1,.912,0,2.922,2.922,0,0,1,.576,1.121c.176.614.317,1.237.479,1.882l-1.508-.07A2.863,2.863,0,0,0,9.5,4.158,1.7,1.7,0,0,0,8.675,3.338Z" fill="#2fa3f7"/>
        <path id="Path_1056" data-name="Path 1056" d="M8.673,11.647a1.777,1.777,0,0,0,.961-2l1.477-.069a8.255,8.255,0,0,1-.694,2.507,2.54,2.54,0,0,1-.373.55.483.483,0,0,1-.794.013A2.821,2.821,0,0,1,8.673,11.647Z" fill="#2fa3f7"/>
        <path id="Path_1057" data-name="Path 1057" d="M8.6,12.736a5.371,5.371,0,0,1-2.15-.96h.236c.447,0,.894,0,1.338,0a.2.2,0,0,1,.153.076C8.318,12.141,8.452,12.434,8.6,12.736Z" fill="#2fa3f7"/>
        <path id="Path_1058" data-name="Path 1058" d="M6.5,3.212A4.826,4.826,0,0,1,8.593,2.25c-.145.311-.286.614-.431.917a.1.1,0,0,1-.079.045C7.556,3.213,7.028,3.212,6.5,3.212Z" fill="#2fa3f7"/>
      </g>
    </g>
  </g>
</svg>
