<svg xmlns="http://www.w3.org/2000/svg" xmlns:xlink="http://www.w3.org/1999/xlink" width="15" height="15" viewBox="0 0 15 15">
  <defs>
    <clipPath id="clip-path">
      <rect id="Rectangle_206" data-name="Rectangle 206" width="15" height="15" transform="translate(531.611 119.5)" fill="#2fa3f7"/>
    </clipPath>
  </defs>
  <g id="VPS_packages" data-name="VPS packages" transform="translate(-531.611 -119.5)" clip-path="url(#clip-path)">
    <path id="internet-server" d="M8.8,14.874a6.4,6.4,0,0,0,3.24-1.742H9.755A5.32,5.32,0,0,1,8.8,14.874Zm7.279-3.886H9.648V12.6H16.08ZM10.72,12.06h-.536v-.536h.536Zm1.072,0h-.536v-.536h.536Zm1.072,0h-.536v-.536h.536Zm2.68,0H13.4v-.536h2.144Zm-3.5-8.04A6.4,6.4,0,0,0,8.8,2.278,5.32,5.32,0,0,1,9.755,4.02ZM7.5,15.008c.616,0,1.244-.721,1.7-1.943a.256.256,0,0,1-.1-.2V12.6H5.639C6.11,14.11,6.821,15.008,7.5,15.008ZM4.939,12.06a14.928,14.928,0,0,1-.381-3.216H1.08A6.4,6.4,0,0,0,2.1,12.06Zm.549,0H9.112V8.844H5.1A14.242,14.242,0,0,0,5.489,12.06Zm-.407-7.5A5.954,5.954,0,0,1,6.228,2.273,6.432,6.432,0,0,0,2.49,4.556ZM7.5,2.144c-.683,0-1.394.9-1.865,2.412H9.112V4.288a.256.256,0,0,1,.1-.2C8.748,2.865,8.12,2.144,7.5,2.144ZM6.228,14.879A5.954,5.954,0,0,1,5.081,12.6H2.49a6.432,6.432,0,0,0,3.739,2.283ZM1.08,8.308H4.559a14.928,14.928,0,0,1,.381-3.216H2.1A6.4,6.4,0,0,0,1.08,8.308Zm15,.536H9.648v1.608H16.08ZM10.72,9.916h-.536V9.38h.536Zm1.072,0h-.536V9.38h.536Zm1.072,0h-.536V9.38h.536Zm2.68,0H13.4V9.38h2.144Zm.536-5.36H9.648V6.164H16.08ZM10.72,5.628h-.536V5.092h.536Zm1.072,0h-.536V5.092h.536Zm1.072,0h-.536V5.092h.536Zm2.68,0H13.4V5.092h2.144ZM16.08,6.7H9.648V8.308H16.08ZM10.72,7.772h-.536V7.236h.536Zm1.072,0h-.536V7.236h.536Zm1.072,0h-.536V7.236h.536Zm2.68,0H13.4V7.236h2.144ZM9.112,5.092H5.489A14.242,14.242,0,0,0,5.1,8.308H9.112Z" transform="translate(530.531 118.424)" fill="#2fa3f7"/>
  </g>
</svg>
